<svg xmlns="http://www.w3.org/2000/svg" viewBox="0 0 512 512" width="512" height="512" role="img" aria-label="VAgeWell Care">
  <rect width="512" height="512" rx="112" fill="#9810FA"/>
  <path d="M256 400c-8 0-16-3-22-9l-96-92c-38-37-40-96-4-134 33-34 87-34 122-2 35-32 89-32 122 2 36 38 34 97-4 134l-96 92c-6 6-14 9-22 9z" fill="#ffffff" opacity="0.16"/>
  <path d="M256 156c-9 0-16 7-16 16v52h-52c-9 0-16 7-16 16s7 16 16 16h52v52c0 9 7 16 16 16s16-7 16-16v-52h52c9 0 16-7 16-16s-7-16-16-16h-52v-52c0-9-7-16-16-16z" fill="#ffffff"/>
</svg>
